PathFileType	4	(X/Y/Z)	OpenSim_Sub11_CSPreOp_Gyro.trc
DataRate	CameraRate	NumFrames	NumMarkers	Units	OrigDataRate	OrigDataStartFrame	OrigNumFrames
100	100	30	8	m	100	926	3701
Frame#	Time	torso_imu_offset_imu	pelvis_imu_offset_imu	tibia_r_imu_offset_imu	femur_r_imu_offset_imu	tibia_l_imu_offset_imu	femur_l_imu_offset_imu	toes_r_imu_offset_imu	toes_l_imu_offset_imu
				X1	Y1	Z1	X2	Y2	Z2	X3	Y3	Z3	X4	Y4	Z4	X5	Y5	Z5	X6	Y6	Z6	X7	Y7	Z7	X8		Y8	Z8	

926	9.25000000	0.06703400	0.57575700	0.12024400	0.14007900	-0.44631200	-0.06362000	-0.31707700	-0.46268400	-0.75358800	-1.43216100	0.15267300	-0.41856300	-0.05963100	0.08487500	0.77358100	-0.01010600	-0.04335500	0.08859600	-0.85275900	-1.24112400	-0.19113600	-0.10103300	-0.24324100	0.27870500
927	9.26000000	0.09718400	0.55133300	0.11336800	0.06812300	-0.41909300	-0.08020600	-0.04583700	-0.40245000	-0.56349000	-1.51895300	0.22247600	-0.25155800	-0.09640300	0.07333900	0.83171800	-0.03274000	-0.00496900	0.03263900	-0.81449300	-1.23358700	-0.15996800	-0.09069600	-0.23974900	0.28294100
928	9.27000000	0.12494400	0.49832400	0.09045800	0.01701400	-0.40453300	-0.09719000	0.83891700	-0.12432800	-0.35126200	-1.01243600	0.40031300	-0.09975000	-0.13307600	0.07010700	0.89751900	-0.04423500	0.04996500	-0.04267400	-0.80811200	-1.13648800	-0.07902000	-0.11470600	-0.29148900	0.33181800
929	9.28000000	0.13083700	0.44589800	0.05863300	-0.02489500	-0.38625800	-0.09469000	1.25132200	0.03396000	-0.25094700	-0.29836800	0.50755700	0.01687400	-0.15278200	0.05336300	0.95933900	-0.08385000	0.10284000	-0.12473500	-0.48391500	-1.01729500	-0.08379500	-0.21917100	-0.32956000	0.37881800
930	9.29000000	0.12058300	0.38639000	0.03674400	-0.06106300	-0.37804400	-0.07457500	0.98966100	-0.08327400	-0.19569800	0.22001200	0.40430500	0.05101700	-0.14473100	0.04104000	1.01937200	-0.10954900	0.13936900	-0.20557300	-0.18783300	-0.87524300	-0.09741300	-0.31075900	-0.40665100	0.43983600
931	9.30000000	0.10026800	0.33566100	0.01434300	-0.08525100	-0.36602300	-0.05324100	0.80704300	-0.31377500	-0.22601400	0.48897100	0.17651400	-0.04597800	-0.13365800	0.03230300	1.08250800	-0.12894100	0.16667800	-0.28935200	-0.04433800	-0.61188200	-0.06270200	-0.38156000	-0.44611000	0.49042900
932	9.31000000	0.08606200	0.28332000	-0.00946500	-0.08306300	-0.35828000	-0.03231700	0.90527600	-0.37183300	-0.34845100	0.59464100	-0.06698800	-0.28985400	-0.07909000	0.02731600	1.14007800	-0.14645800	0.17937000	-0.35839400	0.30190400	-0.31421900	0.00900700	-0.45755400	-0.54175400	0.56998100
933	9.32000000	0.02654500	0.24853400	-0.03345500	-0.06681200	-0.35350000	-0.01583700	0.87360500	-0.31311100	-0.45745700	0.72542600	-0.19173800	-0.57716100	-0.00668500	0.00707900	1.19309000	-0.13017700	0.18362800	-0.46426700	0.11897000	-0.28829400	0.03824400	-0.71085900	-0.66477800	0.61348200
934	9.33000000	-0.11636400	0.24144600	-0.05345900	-0.01631800	-0.34145700	-0.00402500	0.48030200	-0.36150000	-0.45344100	0.84673100	-0.18272700	-0.77851000	0.07699800	-0.00389500	1.24850100	-0.11779900	0.21111800	-0.56237900	0.12154600	-0.15337600	0.02581900	-0.63031100	-0.88514600	0.54972400
935	9.34000000	-0.22406900	0.26008100	-0.01285800	-0.00142400	-0.33402300	-0.00251600	-0.02666900	-0.48227100	-0.36269000	0.86187100	-0.16160900	-0.90206200	0.18194700	-0.00225700	1.29830900	-0.09293300	0.27167200	-0.66331100	-0.00170900	-0.10372100	0.01370600	-0.27051300	-1.15236400	0.50693300
936	9.35000000	-0.24083800	0.26645100	0.03620800	0.03580000	-0.33583200	-0.02168400	-0.26242900	-0.47381200	-0.27131600	0.77384300	-0.16966000	-0.92008400	0.23230700	0.02437200	1.31838800	-0.04533100	0.36816700	-0.70121100	0.01258500	-0.04961700	0.01476100	-0.47911900	-1.31539800	0.44026000
937	9.36000000	-0.23164900	0.24758100	0.07140800	0.06883300	-0.32615600	-0.05851400	-0.23956700	-0.40410000	-0.20476200	0.67189200	-0.12822700	-0.81260200	0.19502100	0.02481700	1.35550300	0.04733000	0.48885300	-0.72624000	0.01293600	-0.05339100	0.02416800	-0.31839400	-1.53128800	0.34653800
938	9.37000000	-0.22991900	0.24572600	0.10481000	0.08742800	-0.31131800	-0.10179000	-0.09514000	-0.32727400	-0.22938400	0.55795800	-0.03866300	-0.66423100	0.14678000	0.02854500	1.39412300	0.16327000	0.62352600	-0.78104500	-0.01638600	-0.04080100	0.01968300	-0.22751100	-1.70528400	0.25957200
939	9.38000000	-0.20804600	0.24631200	0.12073400	0.10327300	-0.27929300	-0.14509300	0.02171500	-0.26426400	-0.32728700	0.39973500	0.01501100	-0.51532100	0.07502000	0.02889300	1.44194500	0.23828000	0.77712100	-0.80505400	-0.05936800	-0.03181800	0.01341400	-0.33832300	-1.90763100	0.15627600
940	9.39000000	-0.17328000	0.23641600	0.11407200	0.10757700	-0.24646500	-0.18266100	0.08803400	-0.24277900	-0.39352400	0.22186800	0.00540700	-0.38397400	-0.00026500	0.04364400	1.50407800	0.28845100	0.91365900	-0.82223900	-0.02192800	-0.04631000	0.00984200	-0.21243700	-2.05907300	0.06989500
941	9.40000000	-0.14331900	0.21139100	0.09954300	0.10782700	-0.22626900	-0.21251200	0.15313200	-0.24243900	-0.41417300	-0.01891100	-0.03611900	-0.28597800	-0.06336900	0.04779000	1.57931300	0.28726400	1.02155400	-0.84512900	-0.03499400	-0.06553000	0.00447900	-0.27824800	-2.22923500	0.02705000
942	9.41000000	-0.09915200	0.18594200	0.07534600	0.12030000	-0.19079500	-0.23620200	0.21389600	-0.22392300	-0.42560300	-0.25244600	-0.07591000	-0.25931800	-0.09486300	0.03382300	1.63816100	0.27833800	1.09340000	-0.90112800	-0.04360100	-0.06315800	-0.01208600	-0.23648900	-2.35477600	-0.00145500
943	9.42000000	-0.00051800	0.15917000	0.05405100	0.13986800	-0.14694300	-0.26115900	0.15609400	-0.23750200	-0.41893600	-0.36083400	-0.07857900	-0.26303900	-0.12887900	0.01275700	1.68644500	0.27002500	1.12617100	-1.01852000	-0.02460500	-0.07906900	-0.00125700	-0.30253300	-2.53652800	0.00274400
944	9.43000000	0.07863700	0.13127200	0.03422300	0.17650000	-0.10204400	-0.28739500	-0.00863800	-0.27097300	-0.38463000	-0.31616900	-0.07033600	-0.26075600	-0.15763600	-0.01301400	1.72538200	0.26033800	1.14664000	-1.11556200	0.09891000	-0.11790700	0.00821500	-0.33342600	-2.72930500	0.01346300
945	9.44000000	0.12524900	0.08627600	0.02976800	0.20936900	-0.06669700	-0.30055100	-0.12075400	-0.27898600	-0.35091200	-0.25063400	-0.07117800	-0.26708000	-0.15942700	-0.04244900	1.77663200	0.18957200	1.14377700	-1.21409400	0.04926600	-0.12728300	0.00073900	-0.39145700	-2.90346800	0.04940600
946	9.45000000	0.16267100	0.03730900	0.02957900	0.25275000	-0.03240700	-0.30294000	-0.16345500	-0.26321900	-0.34663900	-0.12039300	-0.08523900	-0.28865100	-0.13468400	-0.08053700	1.81458900	0.09194100	1.15171300	-1.30852000	0.06300300	-0.13573400	0.01037100	-0.31602800	-3.12543300	0.12055500
947	9.46000000	0.21592100	-0.01464100	0.02616100	0.29180800	-0.01081500	-0.28923800	-0.23350000	-0.27201500	-0.35017200	0.04010400	-0.09346100	-0.32069500	-0.08056100	-0.12359100	1.84688700	-0.01443200	1.16700200	-1.37987800	0.10874700	-0.15815200	0.01801300	-0.37961100	-3.42430000	0.21076600
948	9.47000000	0.21517300	-0.03417700	0.03544900	0.31590800	-0.00607100	-0.25339800	-0.25355400	-0.28315400	-0.33373600	0.20726300	-0.08186800	-0.35918800	-0.02280900	-0.19211100	1.89044800	-0.11478600	1.18516100	-1.47602400	0.14758000	-0.19110400	0.01565300	-0.19202700	-3.46864300	0.32856200
949	9.48000000	0.22074300	-0.04135000	0.03975600	0.34193200	-0.01338600	-0.20915400	-0.12394800	-0.25937100	-0.31715000	0.31782000	-0.07758900	-0.39715500	0.05573000	-0.26784500	1.90846500	-0.18685400	1.20115300	-1.48766800	0.17618200	-0.19235100	0.00166600	0.34928200	-3.70760600	0.50856300
950	9.49000000	0.23016000	-0.04931100	0.05031800	0.35272600	-0.02708500	-0.15949800	0.08295800	-0.22444500	-0.32628300	0.36769400	-0.08564600	-0.42397100	0.14762500	-0.33230100	1.89900600	-0.26599900	1.19867800	-1.48652600	0.18655000	-0.16635400	0.00583200	-0.71297400	-3.93092800	0.84938800
951	9.50000000	0.23334000	-0.07090800	0.06506300	0.35472100	-0.03359600	-0.10299900	0.21857500	-0.19541800	-0.32867000	0.38648200	-0.08361800	-0.44555100	0.20530900	-0.39230300	1.82274200	-0.41236000	1.24425400	-1.52371100	0.18743100	-0.17190200	-0.00655500	-1.34871500	-3.87324800	1.02702600
952	9.51000000	0.20917000	-0.09322300	0.06215900	0.33505400	-0.03650400	-0.04722300	0.29326100	-0.18346500	-0.29286200	0.42406700	-0.06866000	-0.45922000	0.25760500	-0.42851300	1.71980000	-0.44814700	1.37330700	-1.53412900	0.14191000	-0.16312300	0.00172200	-0.63036200	-4.10608900	1.04432800
953	9.52000000	0.14902700	-0.10822400	0.06169400	0.31610700	-0.02767400	0.00536300	0.43356900	-0.14638000	-0.27696400	0.48329000	-0.07323200	-0.44752000	0.34017500	-0.44435900	1.64349100	-0.54025500	1.38433100	-1.44738100	0.19162300	-0.14435100	0.00199800	-0.42777000	-3.79219700	1.12479600
954	9.53000000	0.09300800	-0.11835600	0.06190000	0.28698800	-0.00793500	0.04254600	0.51316000	-0.11305000	-0.26300400	0.55766600	-0.05884200	-0.43951800	0.51343200	-0.48048100	1.56352100	-0.49256000	1.37152000	-1.42217700	0.12944900	-0.12345400	0.00570000	-0.73109500	-3.54704400	1.25082200
955	9.54000000	0.03847400	-0.12265400	0.05889500	0.24807000	0.01595000	0.06311500	0.46039900	-0.11641400	-0.24723300	0.60808100	-0.04043700	-0.44128400	0.77472300	-0.52083600	1.44435800	-0.41876200	1.33747100	-1.36564000	0.13955300	-0.13295300	0.00915100	-0.30639700	-3.22027800	1.21273000
